# Blender 3.1.0
# www.blender.org
o Cube.001
v 0.061528 -0.000000 0.296246
v -2.872859 0.000000 -4.875952
v -5.059879 0.000000 -2.830030
v -2.755276 0.002503 0.909070
v 2.523108 0.000000 -1.502433
v -0.591773 0.000000 -4.617273
v 3.750857 0.000000 -5.197115
v 1.407116 0.000000 -6.663197
v 3.645880 0.002503 -10.163481
v 0.419429 0.000000 -8.215276
v 0.198140 0.002504 -12.850195
v -2.026270 0.000000 -7.415719
v -3.671006 0.002504 -11.636436
v -3.837030 0.000000 -9.155930
v -6.155182 0.002504 -11.971751
v -6.282730 0.000000 -8.168242
v -8.352170 0.002504 -13.553486
v -7.952390 0.000000 -4.758371
v -10.068865 0.002504 -15.669956
v -13.972576 0.002504 -12.518764
v -12.161818 0.002504 -15.152596
v -13.996092 0.002503 -6.051768
v -11.926653 0.002503 -3.606068
v -9.104691 0.002503 1.638078
v -6.917670 0.002503 2.543458
v -4.730649 0.002503 3.448837
v -5.059879 3.019125 -2.830030
v -7.952390 3.019125 -4.758371
v -6.282730 3.019125 -8.168242
v -2.872859 3.019125 -4.875952
v -2.026270 3.019125 -7.415719
v -3.837030 3.019125 -9.155930
v -0.591773 3.019125 -4.617273
v 0.419429 3.019125 -8.215276
v 1.407116 3.019125 -6.663197
v -13.972576 -0.997496 -12.518764
v -12.161818 -0.997496 -15.152596
v 0.198140 -0.997496 -12.850195
v -3.671006 -0.997496 -11.636436
v 3.750857 -1.000000 -5.197115
v 3.645880 -0.997497 -10.163481
v -10.068865 -0.997496 -15.669956
v -11.926653 -0.997497 -3.606068
v -9.104691 -0.997497 1.638078
v -6.155182 -0.997496 -11.971751
v -8.352170 -0.997496 -13.553486
v -6.917670 -0.997497 2.543458
v -4.730649 -0.997497 3.448837
v -2.755276 -0.997497 0.909070
v -13.996092 -0.997497 -6.051768
v 0.061528 -1.000000 0.296246
v 2.523108 -1.000000 -1.502433
v 0.419429 0.000000 -8.215276
v -2.026270 0.000000 -7.415719
v -2.026270 3.019125 -7.415719
v 0.419429 3.019125 -8.215276
v -6.282730 0.000000 -8.168242
v -7.952390 0.000000 -4.758371
v -7.952390 3.019125 -4.758371
v -6.282730 3.019125 -8.168242
v -5.059879 0.000000 -2.830030
v -2.872859 0.000000 -4.875952
v -2.872859 3.019125 -4.875952
v -5.059879 3.019125 -2.830030
v 1.407116 0.000000 -6.663197
v 1.407116 3.019125 -6.663197
v -3.837030 0.000000 -9.155930
v -3.837030 3.019125 -9.155930
v -0.591773 0.000000 -4.617273
v -0.591773 3.019125 -4.617273
vn -0.0000 1.0000 -0.0003
vn 0.0002 1.0000 -0.0004
vn 0.0004 1.0000 -0.0002
vn -0.0000 1.0000 -0.0000
vn -0.0001 1.0000 0.0002
vn -0.0004 1.0000 0.0005
vn -0.0003 1.0000 0.0003
vn -0.0001 1.0000 0.0005
vn -0.0002 1.0000 0.0005
vn -0.0001 1.0000 0.0008
vn -0.0001 1.0000 0.0006
vn -0.0002 1.0000 0.0007
vn -0.0004 1.0000 0.0009
vn 0.0004 1.0000 0.0004
vn -0.0001 -1.0000 -0.0001
vn -0.0000 -1.0000 -0.0000
vn -0.0003 -1.0000 -0.0000
vn -0.0005 -1.0000 0.0005
vn 0.0002 1.0000 -0.0003
vn -0.0001 1.0000 -0.0004
vn 0.8240 -0.0000 0.5665
vn -0.2993 -0.0000 -0.9542
vn 0.9998 -0.0000 -0.0211
vn 0.2400 -0.0000 0.9708
vn -0.8806 -0.0000 0.4739
vn 0.5843 -0.0000 -0.8116
vn -0.3825 -0.0000 0.9240
vn -0.7766 -0.0000 0.6299
vn 0.7894 -0.0000 0.6139
vn 1.0000 -0.0000 0.0036
vn 0.5900 -0.0000 0.8074
vn 0.2126 -0.0000 0.9771
vn 0.9490 -0.0000 0.3153
vn 0.6147 -0.0000 -0.7888
vn 0.1338 -0.0000 -0.9910
vn 0.7634 -0.0000 -0.6459
vn -0.3107 -0.0000 -0.9505
vn -0.8981 -0.0000 -0.4398
vn 0.6832 -0.0000 0.7303
vn 0.8437 -0.0000 -0.5369
vn -0.3745 -0.0000 -0.9272
vn 0.7153 -0.0000 0.6988
vn 0.6929 -0.0000 -0.7210
vn 0.5547 -0.0000 -0.8321
vn -0.1127 -0.0000 0.9936
vn 0.0005 1.0000 0.0003
vn -0.0004 -1.0000 0.0007
vt 0.000000 0.000000
vt 0.000000 0.000000
vt 0.000000 0.000000
vt 0.000000 0.000000
vt 0.000000 0.000000
vt 0.000000 0.000000
vt 0.000000 0.000000
vt 0.000000 0.000000
vt 0.000000 0.000000
vt 0.000000 0.000000
vt 0.000000 0.000000
vt 0.000000 0.000000
vt 0.000000 0.000000
vt 0.000000 0.000000
vt 0.000000 0.000000
vt 0.000000 0.000000
vt 0.000000 0.000000
vt 0.000000 0.000000
vt 0.000000 0.000000
vt 0.000000 0.000000
vt 0.000000 0.000000
vt 0.000000 0.000000
vt 0.000000 0.000000
vt 0.000000 0.000000
vt 0.000000 0.000000
vt 0.000000 0.000000
vt 0.000000 0.000000
vt 0.000000 0.000000
vt 0.000000 0.000000
vt 0.000000 0.000000
vt 0.000000 0.000000
vt 0.000000 0.000000
vt 0.000000 0.000000
vt 0.000000 0.000000
vt 0.000000 0.000000
vt 0.000000 0.000000
vt 0.000000 0.000000
vt 0.000000 0.000000
vt 0.000000 0.000000
vt 0.000000 0.000000
vt 0.000000 0.000000
vt 0.000000 0.000000
vt 0.000000 0.000000
vt 0.000000 0.000000
vt 0.000000 0.000000
vt 0.000000 0.000000
vt 0.000000 0.000000
vt 0.000000 0.000000
vt 0.000000 0.000000
vt 0.000000 0.000000
vt 0.000000 0.000000
vt 0.000000 0.000000
vt 0.000000 0.000000
vt 0.000000 0.000000
vt 0.000000 0.000000
vt 0.000000 0.000000
vt 0.000000 0.000000
vt 0.000000 0.000000
vt 0.000000 0.000000
vt 0.000000 0.000000
vt 0.000000 0.000000
vt 0.000000 0.000000
vt 0.000000 0.000000
vt 0.000000 0.000000
vt 0.000000 0.000000
vt 0.000000 0.000000
vt 0.000000 0.000000
vt 0.000000 0.000000
vt 0.000000 0.000000
vt 0.000000 0.000000
s 1
f 2/2/1 4/4/2 1/1/3
f 1/1/3 6/6/4 2/2/1
f 7/7/5 6/6/4 5/5/4
f 9/9/6 8/8/7 7/7/5
f 11/11/8 10/10/9 9/9/6
f 13/13/10 12/12/11 11/11/8
f 15/15/12 14/14/13 13/13/10
f 17/17/8 16/16/14 15/15/12
f 17/17/15 21/21/16 19/19/16
f 22/22/17 17/17/15 18/18/17
f 18/18/17 23/23/18 22/22/17
f 24/24/19 3/3/20 23/23/3
f 25/25/4 4/4/2 24/24/19
f 28/28/16 30/30/16 27/27/16
f 29/29/4 31/31/4 32/32/4
f 31/31/4 33/33/4 34/34/4
f 35/35/4 34/34/4 33/33/4
f 20/20/21 37/37/21 21/21/21
f 11/11/22 39/39/22 13/13/22
f 7/7/23 41/41/23 9/9/23
f 21/21/24 42/42/24 19/19/24
f 23/23/25 44/44/25 24/24/25
f 15/15/26 46/46/26 17/17/26
f 25/25/27 48/48/27 26/26/27
f 19/19/28 46/46/28 17/17/28
f 26/26/29 49/49/29 4/4/29
f 22/22/30 36/36/30 20/20/30
f 1/1/31 52/52/31 5/5/31
f 1/1/32 49/49/32 51/51/32
f 5/5/33 40/40/33 7/7/33
f 24/24/27 47/47/27 25/25/27
f 9/9/34 38/38/34 11/11/34
f 13/13/35 45/45/35 15/15/35
f 23/23/36 50/50/36 22/22/36
f 54/54/37 56/56/37 53/53/37
f 58/58/38 60/60/38 57/57/38
f 62/62/39 64/64/39 61/61/39
f 53/53/40 66/66/40 65/65/40
f 57/57/41 68/68/41 67/67/41
f 65/65/42 70/70/42 69/69/42
f 67/67/43 55/55/43 54/54/43
f 58/58/44 64/64/44 61/61/44
f 69/69/45 63/63/45 62/62/45
f 2/2/1 3/3/20 4/4/2
f 1/1/3 5/5/4 6/6/4
f 7/7/5 8/8/7 6/6/4
f 9/9/6 10/10/9 8/8/7
f 11/11/8 12/12/11 10/10/9
f 13/13/10 14/14/13 12/12/11
f 15/15/12 16/16/14 14/14/13
f 17/17/8 18/18/46 16/16/14
f 17/17/15 20/20/16 21/21/16
f 22/22/17 20/20/16 17/17/15
f 18/18/17 3/3/47 23/23/18
f 24/24/19 4/4/2 3/3/20
f 25/25/4 26/26/4 4/4/2
f 28/28/16 29/29/16 30/30/16
f 29/29/4 30/30/4 31/31/4
f 31/31/4 30/30/4 33/33/4
f 20/20/21 36/36/21 37/37/21
f 11/11/22 38/38/22 39/39/22
f 7/7/23 40/40/23 41/41/23
f 21/21/24 37/37/24 42/42/24
f 23/23/25 43/43/25 44/44/25
f 15/15/26 45/45/26 46/46/26
f 25/25/27 47/47/27 48/48/27
f 19/19/28 42/42/28 46/46/28
f 26/26/29 48/48/29 49/49/29
f 22/22/30 50/50/30 36/36/30
f 1/1/31 51/51/31 52/52/31
f 1/1/32 4/4/32 49/49/32
f 5/5/33 52/52/33 40/40/33
f 24/24/27 44/44/27 47/47/27
f 9/9/34 41/41/34 38/38/34
f 13/13/35 39/39/35 45/45/35
f 23/23/36 43/43/36 50/50/36
f 54/54/37 55/55/37 56/56/37
f 58/58/38 59/59/38 60/60/38
f 62/62/39 63/63/39 64/64/39
f 53/53/40 56/56/40 66/66/40
f 57/57/41 60/60/41 68/68/41
f 65/65/42 66/66/42 70/70/42
f 67/67/43 68/68/43 55/55/43
f 58/58/44 59/59/44 64/64/44
f 69/69/45 70/70/45 63/63/45
